<?xml version="1.0" encoding="UTF-8"?>
<!DOCTYPE svg PUBLIC "-//W3C//DTD SVG 1.1//EN" "http://www.w3.org/Graphics/SVG/1.1/DTD/svg11.dtd">
<!-- Creator: CorelDRAW 2020 (64-Bit) -->
<svg xmlns="http://www.w3.org/2000/svg" xml:space="preserve" width="18.0134mm" height="18.0136mm" version="1.1" style="shape-rendering:geometricPrecision; text-rendering:geometricPrecision; image-rendering:optimizeQuality; fill-rule:evenodd; clip-rule:evenodd"
viewBox="0 0 515.63 515.64"
 xmlns:xlink="http://www.w3.org/1999/xlink"
 xmlns:xodm="http://www.corel.com/coreldraw/odm/2003">
 <defs>
  <style type="text/css">
   <![CDATA[
    .fil0 {fill:#000066}
    .fil1 {fill:white}
    .fil2 {fill:#000066;fill-rule:nonzero}
   ]]>
  </style>
 </defs>
 <g id="Capa_x0020_1">
  <metadata id="CorelCorpID_0Corel-Layer"/>
  <g id="_2923976983520">
   <circle class="fil0" cx="257.81" cy="257.82" r="257.82"/>
   <g>
    <path class="fil1" d="M274.78 428.86l0 0.58 -61.02 0 0 -137.4 -17.54 0 0 137.4 -61.03 0 0 -164.42c0,-15.07 1.61,-30.51 6.34,-44.88 3.57,-10.85 9.76,-22.7 20.69,-26.56l-24.16 -107.4 64.08 0 11.62 51.89 0 -51.89 61.02 0 0 3.22c4.04,-2.04 8.62,-3.22 13.79,-3.22l96.67 0 0 103.25 -78.69 0 0 140.26 78.69 0 0 99.76 -104.77 0c-2.01,0 -3.9,-0.2 -5.68,-0.58z"/>
    <path class="fil2" d="M289.99 346.25l78.69 0 0 66.64 -88.21 0c-6.05,0 -10.64,-5.47 -13.77,-16.48 -3.07,-11.17 -4.62,-25.52 -4.62,-43.19l0 -185.03c0,-19.49 2.59,-35.42 7.74,-47.78 4.8,-11.8 11.05,-17.67 18.74,-17.67l80.11 0 0 70.13 -78.69 0 0 173.38zm-131.23 -243.51l23.87 106.1 -12.64 0c-4.75,0 -8.99,5.47 -12.72,16.48 -3.66,11.41 -5.51,24.65 -5.51,39.7l0 147.86 27.91 0 0 -137.4 50.66 0 0 137.4 27.91 0 0 -310.15 -27.91 0 0 106.1 -10.18 0c-3.84,0 -6.27,-1.11 -7.37,-3.41 -1.09,-2.22 -2.46,-6.98 -4.09,-14.26l-19.81 -88.43 -30.12 0z"/>
   </g>
  </g>
 </g>
</svg>
